<svg width="81" height="81" viewBox="0 0 81 81" fill="none" xmlns="http://www.w3.org/2000/svg">
    <path
        d="M40.5 40.5L21.2625 26.0719C20.9499 25.8344 20.6961 25.5283 20.5205 25.1772C20.345 24.8261 20.2524 24.4394 20.25 24.0469V12.6562C20.25 11.9849 20.5167 11.3411 20.9914 10.8664C21.4661 10.3917 22.1099 10.125 22.7812 10.125H58.2188C58.8901 10.125 59.5339 10.3917 60.0086 10.8664C60.4833 11.3411 60.75 11.9849 60.75 12.6562V23.9203C60.7476 24.3128 60.655 24.6996 60.4795 25.0507C60.3039 25.4018 60.0501 25.7079 59.7375 25.9453L40.5 40.5Z"
        stroke="white" stroke-width="2" stroke-linecap="round" stroke-linejoin="round" />
    <path
        d="M40.5 40.5L21.2625 54.9281C20.9499 55.1656 20.6961 55.4717 20.5205 55.8228C20.345 56.1739 20.2524 56.5606 20.25 56.9531V68.3438C20.25 69.0151 20.5167 69.6589 20.9914 70.1336C21.4661 70.6083 22.1099 70.875 22.7812 70.875H58.2188C58.8901 70.875 59.5339 70.6083 60.0086 70.1336C60.4833 69.6589 60.75 69.0151 60.75 68.3438V57.0797C60.7476 56.6872 60.655 56.3004 60.4795 55.9493C60.3039 55.5982 60.0501 55.2921 59.7375 55.0547L40.5 40.5Z"
        stroke="white" stroke-width="2" stroke-linecap="round" stroke-linejoin="round" />
    <path d="M23.6356 27.8438H57.238" stroke="white" stroke-width="2" stroke-linecap="round" stroke-linejoin="round" />
    <path d="M40.5 53.1562V40.5" stroke="white" stroke-width="2" stroke-linecap="round" stroke-linejoin="round" />
</svg>
