<svg width="12" height="9" viewBox="0 0 12 9" fill="none" xmlns="http://www.w3.org/2000/svg">
    <path fill-rule="evenodd" clip-rule="evenodd"
        d="M10 0.958333H2C1.44772 0.958333 1 1.38739 1 1.91667V7.08333C1 7.61261 1.44772 8.04167 2 8.04167H10C10.5523 8.04167 11 7.61261 11 7.08333V1.91667C11 1.38739 10.5523 0.958333 10 0.958333ZM2 0C0.895431 0 0 0.858123 0 1.91667V7.08333C0 8.14188 0.895431 9 2 9H10C11.1046 9 12 8.14188 12 7.08333V1.91667C12 0.858121 11.1046 0 10 0H2ZM5.5 4.5C5.5 4.23536 5.72386 4.02083 6 4.02083H9.3913C9.66745 4.02083 9.8913 4.23536 9.8913 4.5C9.8913 4.76464 9.66745 4.97917 9.3913 4.97917H6C5.72386 4.97917 5.5 4.76464 5.5 4.5ZM2.6087 4.02083C2.33255 4.02083 2.1087 4.23536 2.1087 4.5C2.1087 4.76464 2.33255 4.97917 2.6087 4.97917H3.91304C4.18919 4.97917 4.41304 4.76464 4.41304 4.5C4.41304 4.23536 4.18919 4.02083 3.91304 4.02083H2.6087ZM2.1087 6.5C2.1087 6.23536 2.33255 6.02083 2.6087 6.02083H6C6.27614 6.02083 6.5 6.23536 6.5 6.5C6.5 6.76464 6.27614 6.97917 6 6.97917H2.6087C2.33255 6.97917 2.1087 6.76464 2.1087 6.5ZM8.08696 6.02083C7.81081 6.02083 7.58696 6.23536 7.58696 6.5C7.58696 6.76464 7.81081 6.97917 8.08696 6.97917H9.3913C9.66745 6.97917 9.8913 6.76464 9.8913 6.5C9.8913 6.23536 9.66745 6.02083 9.3913 6.02083H8.08696Z"
        fill="white" />
</svg>
